<svg xmlns="http://www.w3.org/2000/svg" width="163.603" height="92.864" viewBox="0 0 163.603 92.864">
  <path id="Path_5" data-name="Path 5" d="M2.6,130.02A3.79,3.79,0,0,0,6.259,127.8a3.505,3.505,0,0,0-.92-4.047l-.259-.984.1-.236a10.161,10.161,0,0,1,9.375-5.92,10.153,10.153,0,0,1,9.329,5.987c3.059,7.05,6.954,14.113,7.913,21.568a27.5,27.5,0,0,1-.527,9.872,110.93,110.93,0,0,0,10.94-47.8,106.343,106.343,0,0,0-.72-12.392q-.6-5.06-1.655-10.047A114.266,114.266,0,0,0,15.712,34.464,31.641,31.641,0,0,1,2.246,21.095,22.937,22.937,0,0,1,0,14.636c.655.082,1.322.134,1.977.175l.623.031.077,0a3.771,3.771,0,0,0,3.508-1.965A3.456,3.456,0,0,0,5.75,9.013l-.85-1C4.471,7.5,4.03,7,3.6,6.481a1.792,1.792,0,0,1-.14-.154c-.494-.586-.989-1.162-1.483-1.748A10.621,10.621,0,0,1,5.524,1.3C10.478-1.478,17.313.445,20.892,4.733s4.266,10.3,3.02,15.662a40.637,40.637,0,0,1-6,12.793c.269.329.548.648.817.977A116.574,116.574,0,0,1,31.512,53.54a46.774,46.774,0,0,1,3.039-22.624c2.909-6.715,8.361-12.37,13.162-18.175,5.767-6.973,17.593-3.93,18.609,4.909q.015.128.029.257-1.07.578-2.094,1.226A4.807,4.807,0,0,0,62.1,24.268a5.035,5.035,0,0,0,4.22,3.784l.1.016a46.867,46.867,0,0,1-1.343,7.291A50.672,50.672,0,0,1,38.957,66.826c-.419.206-.828.411-1.247.607a115.17,115.17,0,0,1,6.727,30.3,108.565,108.565,0,0,1-.086,18.315l.032-.216A29.75,29.75,0,0,1,55.077,98.521c8.229-6.469,19.855-8.851,28.732-14.05a6.1,6.1,0,0,1,6.328-.015,5.541,5.541,0,0,1,2.676,5.487q-.018.114-.036.227a35.1,35.1,0,0,0-3.858,1.779q-1.07.578-2.094,1.226a4.807,4.807,0,0,0-2.155,5.135,5.035,5.035,0,0,0,4.22,3.784l.1.015.215.031A48.6,48.6,0,0,1,79.826,116.2,53.633,53.633,0,0,1,41.74,132.19h-.011a133.3,133.3,0,0,1-8.393,23.447c-3.224,7.047-3.2,6.558-3.779,7.105-2.745,1.929-6.09.213-12.535-1.213s-13.873-6.54-13.97-6.859a35.575,35.575,0,0,0,8.3-.473c-2.225-2.612-4.449-5.245-6.674-7.857a1.832,1.832,0,0,1-.14-.154c-1.128-1.337-2.268-2.663-3.4-4v0A45.792,45.792,0,0,1,2.6,130.02Z" transform="translate(0 92.864) rotate(-90)" fill="#f2f2f2"/>
</svg>
