<?xml version="1.0" standalone="no"?>
<svg xmlns="http://www.w3.org/2000/svg" xmlns:xlink="http://www.w3.org/1999/xlink" height="200px" width="200px">
  <defs>
    <pattern id="doodad" width="85.45" height="148" viewBox="0 0 34.64101615137755 60" patternUnits="userSpaceOnUse" patternTransform="rotate(300)">
      <rect width="100%" height="100%" fill="rgba(42, 67, 101,1)"/>
      <path d="M51.96 30L51.96 50L34.64 60L34.64 40z" stroke-linejoin="miter" fill="#1a202c"/>
      <path d="M17.32 30L17.32 50L0 60L0 40z" stroke-linejoin="miter" fill="#1a202c"/>
      <path d="M34.64 0L34.64 20L17.32 30L17.32 10z" stroke-linejoin="miter" fill="#1a202c"/>
      <path d="M34.64 60L34.64 80L17.32 90L17.32 70z" stroke-linejoin="miter" fill="#1a202c"/>
      <path d="M34.64 60L17.32 50L17.32 30L34.64 40z" stroke-linejoin="miter" fill="#ecc94b"/>
      <path d="M0 60L-17.32 50L-17.32 30L0 40z" stroke-linejoin="miter" fill="#ecc94b"/>
      <path d="M17.32 30L0 20L0 0L17.32 10z" stroke-linejoin="miter" fill="#ecc94b"/>
      <path d="M17.32 90L0 80L0 60L17.32 70z" stroke-linejoin="miter" fill="#ecc94b"/>
      <path d="M26.85 44.5L26.85 35.5L34.64 31L34.64 40z" stroke-linejoin="miter" fill="#1a202c"/>
      <path d="M-7.79 44.5L-7.79 35.5L0 31L0 40z" stroke-linejoin="miter" fill="#1a202c"/>
      <path d="M9.53 14.5L9.53 5.5L17.32 1L17.32 10z" stroke-linejoin="miter" fill="#1a202c"/>
      <path d="M9.53 74.5L9.53 65.5L17.32 61L17.32 70z" stroke-linejoin="miter" fill="#1a202c"/>
      <path d="M34.64 31L42.43 35.5L42.43 44.5L34.64 40z" stroke-linejoin="miter" fill="#ecc94b"/>
      <path d="M0 31L7.79 35.5L7.79 44.5L0 40z" stroke-linejoin="miter" fill="#ecc94b"/>
      <path d="M17.32 1L25.11 5.5L25.11 14.5L17.32 10z" stroke-linejoin="miter" fill="#ecc94b"/>
      <path d="M17.32 61L25.11 65.5L25.11 74.5L17.32 70z" stroke-linejoin="miter" fill="#ecc94b"/>
      <path d="M42.43 44.5L34.64 49L26.85 44.5L34.64 40z" stroke-linejoin="miter" background="true" fill="#1a202c"/>
      <path d="M7.79 44.5L0 49L-7.79 44.5L0 40z" stroke-linejoin="miter" background="true" fill="#1a202c"/>
      <path d="M25.11 14.5L17.32 19L9.53 14.5L17.32 10z" stroke-linejoin="miter" background="true" fill="#1a202c"/>
      <path d="M25.11 74.5L17.32 79L9.53 74.5L17.32 70z" stroke-linejoin="miter" background="true" fill="#1a202c"/>
      <path d="M34.64 40L34.64 40L34.64 40L34.64 40z" stroke-linejoin="miter" fill="#ecc94b"/>
      <path d="M0 40L0 40L0 40L0 40z" stroke-linejoin="miter" fill="#ecc94b"/>
      <path d="M17.32 10L17.32 10L17.32 10L17.32 10z" stroke-linejoin="miter" fill="#ecc94b"/>
      <path d="M17.32 70L17.32 70L17.32 70L17.32 70z" stroke-linejoin="miter" fill="#ecc94b"/>
      <path d="M34.64 40L34.64 40L34.64 40L34.64 40z" stroke-linejoin="miter" fill="#1a202c"/>
      <path d="M0 40L0 40L0 40L0 40z" stroke-linejoin="miter" fill="#1a202c"/>
      <path d="M17.32 10L17.32 10L17.32 10L17.32 10z" stroke-linejoin="miter" fill="#1a202c"/>
      <path d="M17.32 70L17.32 70L17.32 70L17.32 70z" stroke-linejoin="miter" fill="#1a202c"/>
      <path d="M34.64 40L34.64 40L34.64 40L34.64 40z" stroke-linejoin="miter" background="true" fill="#ecc94b"/>
      <path d="M0 40L0 40L0 40L0 40z" stroke-linejoin="miter" background="true" fill="#ecc94b"/>
      <path d="M17.32 10L17.32 10L17.32 10L17.32 10z" stroke-linejoin="miter" background="true" fill="#ecc94b"/>
      <path d="M17.32 70L17.32 70L17.32 70L17.32 70z" stroke-linejoin="miter" background="true" fill="#ecc94b"/>
      <path d="M34.64 40L34.64 40L34.64 40L34.64 40z" stroke-linejoin="miter" fill="#1a202c"/>
      <path d="M0 40L0 40L0 40L0 40z" stroke-linejoin="miter" fill="#1a202c"/>
      <path d="M17.32 10L17.32 10L17.32 10L17.32 10z" stroke-linejoin="miter" fill="#1a202c"/>
      <path d="M17.32 70L17.32 70L17.32 70L17.32 70z" stroke-linejoin="miter" fill="#1a202c"/>
      <path d="M34.64 40L34.64 40L34.64 40L34.64 40z" stroke-linejoin="miter" fill="#ecc94b"/>
      <path d="M0 40L0 40L0 40L0 40z" stroke-linejoin="miter" fill="#ecc94b"/>
      <path d="M17.32 10L17.32 10L17.32 10L17.32 10z" stroke-linejoin="miter" fill="#ecc94b"/>
      <path d="M17.32 70L17.32 70L17.32 70L17.32 70z" stroke-linejoin="miter" fill="#ecc94b"/>
      <path d="M34.64 40L34.64 40L34.64 40L34.64 40z" stroke-linejoin="miter" background="true" fill="#1a202c"/>
      <path d="M0 40L0 40L0 40L0 40z" stroke-linejoin="miter" background="true" fill="#1a202c"/>
      <path d="M17.32 10L17.32 10L17.32 10L17.32 10z" stroke-linejoin="miter" background="true" fill="#1a202c"/>
      <path d="M17.32 70L17.32 70L17.32 70L17.32 70z" stroke-linejoin="miter" background="true" fill="#1a202c"/>
    </pattern>
  </defs>
  <rect fill="url(#doodad)" height="200%" width="200%"/>
</svg>
